<svg version="1.1" id="Layer_1" xmlns="http://www.w3.org/2000/svg" x="0" y="0" viewBox="0 0 100 48.6" xml:space="preserve"><style>.st0{fill:#626262}</style><path class="st0" d="M60.4 26.5l-.2-2.9-.8 2.9h-1l-.8-2.9-.2 2.9h-1l.3-4.4h1.4l.9 3 .9-3h1.4l.3 4.4h-1.2zm1.8 0v-4.4H65v.9h-1.7v.8h1.4v.9h-1.4v1H65v.9h-2.8zm6.9-.9c-.1.2-.2.4-.4.6-.2.2-.4.3-.6.3-.2.1-.5.1-.7.1-.3 0-.5 0-.7-.1l-.6-.3c-.2-.2-.3-.3-.4-.6-.1-.2-.1-.5-.1-.8v-2.7h1.1v2.7c0 .3.1.5.2.7.1.2.3.2.6.2s.4-.1.6-.2c.1-.2.2-.4.2-.7v-2.7h1.1v2.7c-.1.3-.2.5-.3.8zm3.6.6c-.3.2-.7.3-1.2.3H70v-4.4h1.5c.5 0 .9.1 1.1.3.2.2.4.5.4.8 0 .2-.1.4-.2.6-.1.1-.3.3-.4.3.2.1.4.2.6.4.1.2.2.4.2.7 0 .5-.2.8-.5 1zm-.8-3.2c-.1-.1-.2-.1-.5-.1H71v1h.4c.2 0 .4 0 .5-.1.1-.1.2-.2.2-.4s-.1-.3-.2-.4zm.1 1.7c-.1-.1-.3-.1-.5-.1h-.4v1.1h.4c.2 0 .4 0 .5-.1.1-.1.2-.2.2-.4s-.1-.4-.2-.5zm1.8 1.8v-4.4h1.1v4.4h-1.1zm1.9 0v-4.4h1.1v3.5h1.5v.9h-2.6zm3.2 0v-4.4h2.8v.9H80v.8h1.4v.9H80v1h1.7v.9h-2.8zm7 0h-1.2l-1-1.5h-.3v1.5h-1.1v-4.4h1.5c.5 0 1 .1 1.3.4.3.2.4.6.4 1 0 .3-.1.6-.2.8-.1.2-.3.4-.6.5l1.2 1.7zm-1.6-3.4c-.1-.1-.3-.2-.5-.2h-.4v1.3h.3c.2 0 .4-.1.5-.2.1-.1.2-.3.2-.5 0-.1 0-.3-.1-.4zm1.9 3.4v-4.4h1.1v4.4h-1.1zm4.7 0l-1.7-2.6v2.6h-1v-4.4h1.1l1.6 2.5v-2.5h1v4.4h-1zm4.7 0c-.3.1-.6.1-.9.1-.4 0-.7-.1-.9-.2-.3-.1-.5-.3-.7-.5-.2-.2-.3-.4-.4-.7-.1-.3-.1-.6-.1-.9s.1-.7.2-.9c.1-.3.2-.5.4-.7.2-.2.4-.4.7-.5.3-.1.6-.2.9-.2.3 0 .5 0 .7.1.2.1.4.1.6.2l-.1 1c-.2-.1-.3-.2-.5-.3-.2-.1-.4-.1-.6-.1-.2 0-.4 0-.5.1-.1.1-.3.2-.4.3-.1.1-.2.3-.2.4 0 .2-.1.4-.1.6 0 .2 0 .4.1.6 0 .2.1.3.2.4s.2.2.4.3c.1.1.3.1.5.1h.3c.1 0 .2-.1.3-.1v-.8h-.8V24h1.7v2.2c-.3.1-.6.2-.8.3zm4.3-.7c-.1.2-.2.3-.3.4-.1.1-.3.2-.5.2-.2.1-.4.1-.6.1-.3 0-.6 0-.8-.1-.3-.1-.5-.1-.7-.2l.2-.9c.2.1.5.2.7.3s.5.1.7.1c.2 0 .3 0 .4-.1s.1-.2.1-.3v-.2L99 25c-.1 0-.1-.1-.2-.1s-.2-.1-.4-.2l-.6-.3c-.2-.1-.3-.2-.4-.3-.1-.1-.2-.2-.2-.4 0-.1-.1-.3-.1-.5s0-.4.1-.6c.1-.2.2-.3.3-.4.1-.1.3-.2.5-.2.2-.1.4-.1.6-.1.3 0 .5 0 .7.1.2.1.4.1.6.2l-.2.9-.6-.3c-.2-.1-.4-.1-.6-.1-.2 0-.3 0-.4.1s-.1.3-.1.4v.2l.1.1s.1.1.2.1.2.1.3.1l.6.3c.2.1.3.2.4.3.1.1.2.2.2.4 0 .1.1.3.1.5.1.2.1.4 0 .6zm-40.7 7.3c-.2.1-.4.1-.7.1-.3 0-.6-.1-.9-.2-.3-.1-.5-.3-.7-.5-.2-.2-.3-.4-.4-.7s-.1-.6-.1-.9c0-.3.1-.7.2-.9.1-.3.2-.5.4-.7.2-.2.4-.4.7-.5.3-.1.5-.2.9-.2.3 0 .5 0 .7.1.2.1.4.1.5.2l-.2 1c-.1-.1-.3-.2-.5-.3-.2-.1-.3-.1-.5-.1-.3 0-.6.1-.8.4-.2.2-.3.6-.3 1 0 .2 0 .4.1.6.1.2.1.3.2.4.1.1.2.2.4.3.1.1.3.1.5.1s.4 0 .5-.1c.2-.1.3-.1.5-.2l.1.9c-.2.1-.4.2-.6.2zm4.9-1.2c-.1.3-.2.5-.4.7-.2.2-.4.4-.7.5-.3.1-.6.2-.9.2-.3 0-.6-.1-.9-.2-.3-.1-.5-.3-.7-.5-.2-.2-.3-.4-.4-.7-.1-.3-.2-.6-.2-.9 0-.3.1-.7.2-.9.1-.3.2-.5.4-.7.2-.2.4-.4.7-.5.3-.1.6-.2.9-.2s.6.1.9.2c.3.1.5.3.7.5.2.2.3.4.4.7.1.3.2.6.2.9 0 .3-.1.6-.2.9zm-1.2-2c-.2-.3-.4-.4-.7-.4-.3 0-.6.1-.7.4-.2.3-.3.6-.3 1s.1.8.3 1c.2.3.4.4.7.4.3 0 .6-.1.7-.4.2-.3.3-.6.3-1s-.1-.8-.3-1zm2 3.2v-4.4H66v3.5h1.5v.9h-2.6zm3.1 0v-4.4h1.1v3.5h1.5v.9H68zm3.1 0v-4.4h2.8v.9h-1.7v.8h1.4v.9h-1.4v1H74v.9h-2.9zm6.3 0c-.3.1-.6.1-.9.1-.4 0-.7-.1-.9-.2-.3-.1-.5-.3-.7-.5-.2-.2-.3-.4-.4-.7-.1-.3-.1-.6-.1-.9 0-.3.1-.7.2-.9.1-.3.2-.5.4-.7.2-.2.4-.4.7-.5.3-.1.6-.2.9-.2.3 0 .5 0 .7.1.2.1.4.1.6.2l-.1 1c-.2-.1-.3-.2-.5-.3-.2-.1-.4-.1-.6-.1-.2 0-.4 0-.5.1-.1.1-.3.2-.4.3-.1.1-.2.3-.2.4s-.1.4-.1.6c0 .2 0 .4.1.6 0 .2.1.3.2.4.1.1.2.2.4.3.1.1.3.1.5.1h.3c.1 0 .2-.1.3-.1v-.8h-.8v-.8h1.7v2.2c-.3.1-.6.2-.8.3zm1.4 0v-4.4h2.8v.9h-1.7v.8h1.4v.9h-1.4v1h1.7v.9h-2.8zM52.3 15.5h.3v17.7h-.3z"/><path d="M24.3 0L0 24.3l24.3 24.3 24.3-24.3L24.3 0zM7.1 29.2l-4.9-4.9 4.9-4.9v9.8zm17.2 17.2l-17-17h3v-6.9c.6-.6 1.2-.9 1.8-.9.8 0 1.1.5 1.1 1.3v6.6h3.3V22c0-2-1-3.3-3-3.3-1.3 0-2.2.7-3.1 1.5v-4l14-14 16.9 16.9c-.6-.2-1.3-.3-2.1-.3-3 0-5.1 2.2-5.1 5.5s2.1 5.3 5.1 5.3c.9 0 1.7-.2 2.5-.5L24.3 46.4zM42 26c-.9.6-1.6.8-2.4.8-1.3 0-2.4-.8-2.4-2.6s1-2.8 2.4-2.8c.8 0 1.5.2 2.4.8l.3-2.1 4.1 4.1-4 4L42 26zm-8.9-4v7.4h-3.3v-6.6c0-.7-.3-1.3-1-1.3-.6 0-1.1.4-1.7.9v6.9h-3.2v-6.6c0-.7-.3-1.3-1-1.3-.6 0-1.1.4-1.7.9v6.9H18V18.8h3v1.6c.9-1 1.9-1.6 3.3-1.6s2.2.7 2.6 1.6c.9-.9 2-1.6 3.3-1.6 1.8-.1 2.9 1.1 2.9 3.2z" fill="#ba0c2f"/><path class="st0" d="M59 19.9v-1.8h-1.5v1.8h-1.1v-4.4h1.1v1.7H59v-1.7h1.1v4.4H59zm5.8-1.3c-.1.3-.2.5-.4.7-.2.2-.4.4-.7.5-.3.1-.6.2-.9.2-.3 0-.6-.1-.9-.2-.3-.1-.5-.3-.7-.5-.2-.2-.3-.4-.4-.7-.1-.3-.2-.6-.2-.9 0-.3.1-.7.2-.9.1-.3.2-.5.4-.7.2-.2.4-.4.7-.5.3-.1.6-.2.9-.2.3 0 .6.1.9.2.3.1.5.3.7.5.2.2.3.4.4.7.1.3.2.6.2.9 0 .3-.1.6-.2.9zm-1.2-2c-.2-.3-.4-.4-.7-.4s-.6.1-.7.4-.3.6-.3 1 .1.8.3 1 .4.4.7.4.6-.1.7-.4.3-.6.3-1-.1-.7-.3-1zm5.5 2.3c-.1.2-.2.4-.4.6-.2.2-.4.3-.6.3-.2.1-.5.1-.7.1s-.5 0-.7-.1l-.6-.3c-.2-.2-.3-.3-.4-.6-.1-.2-.1-.5-.1-.8v-2.7h1.1v2.7c0 .3.1.5.2.7.1.2.3.2.5.2.3 0 .4-.1.6-.2.1-.2.2-.4.2-.7v-2.7h1.1v2.7c-.1.3-.1.6-.2.8zm3-2.5v3.5H71v-3.5h-1.2v-.9h3.7v.9h-1.4zm5 3.5v-4.4h2.8v.9h-1.7v.8h1.4v.9h-1.4v1h1.7v.9h-2.8zm6.2 0l-1.7-2.6v2.6h-1v-4.4h1.1l1.6 2.5v-2.5h1v4.4h-1zm-9.9-1.8v-.9h1.7v.9h-1.7z"/></svg>